<?xml version="1.0" encoding="UTF-8"?>
<svg xmlns="http://www.w3.org/2000/svg" xmlns:xlink="http://www.w3.org/1999/xlink" width="337pt" height="138pt" viewBox="0 0 337 138" version="1.1">
<g id="surface1">
<path style="fill:none;stroke-width:1.2;stroke-linecap:butt;stroke-linejoin:round;stroke:rgb(20%,20%,20%);stroke-opacity:1;stroke-miterlimit:10;" d="M 96.001565 767.998438 L 96.001565 719.998438 L 431.345315 719.998438 L 431.345315 767.998438 Z M 96.001565 767.998438 " transform="matrix(1,0,0,-1,-95.400002,820.6)"/>
<path style="fill:none;stroke-width:1.2;stroke-linecap:butt;stroke-linejoin:round;stroke:rgb(20%,20%,20%);stroke-opacity:1;stroke-miterlimit:10;" d="M 144.001565 767.998438 L 144.001565 719.998438 Z M 144.001565 767.998438 " transform="matrix(1,0,0,-1,-95.400002,820.6)"/>
<path style="fill:none;stroke-width:1.2;stroke-linecap:butt;stroke-linejoin:round;stroke:rgb(20%,20%,20%);stroke-opacity:1;stroke-miterlimit:10;" d="M 192.001565 767.998438 L 192.001565 719.998438 Z M 192.001565 767.998438 " transform="matrix(1,0,0,-1,-95.400002,820.6)"/>
<path style="fill:none;stroke-width:1.2;stroke-linecap:butt;stroke-linejoin:round;stroke:rgb(20%,20%,20%);stroke-opacity:1;stroke-miterlimit:10;" d="M 240.001565 767.998438 L 240.001565 719.998438 Z M 240.001565 767.998438 " transform="matrix(1,0,0,-1,-95.400002,820.6)"/>
<path style="fill:none;stroke-width:1.2;stroke-linecap:butt;stroke-linejoin:round;stroke:rgb(20%,20%,20%);stroke-opacity:1;stroke-miterlimit:10;" d="M 288.001565 767.998438 L 288.001565 719.998438 Z M 288.001565 767.998438 " transform="matrix(1,0,0,-1,-95.400002,820.6)"/>
<path style="fill:none;stroke-width:1.2;stroke-linecap:butt;stroke-linejoin:round;stroke:rgb(20%,20%,20%);stroke-opacity:1;stroke-miterlimit:10;" d="M 336.001565 767.998438 L 336.001565 719.998438 Z M 336.001565 767.998438 " transform="matrix(1,0,0,-1,-95.400002,820.6)"/>
<path style="fill:none;stroke-width:1.2;stroke-linecap:butt;stroke-linejoin:round;stroke:rgb(20%,20%,20%);stroke-opacity:1;stroke-miterlimit:10;" d="M 384.001565 767.998438 L 384.001565 719.998438 Z M 384.001565 767.998438 " transform="matrix(1,0,0,-1,-95.400002,820.6)"/>
<path style="fill:none;stroke-width:1.2;stroke-linecap:butt;stroke-linejoin:round;stroke:rgb(20%,20%,20%);stroke-opacity:1;stroke-miterlimit:10;" d="M 128.001565 771.998438 L 128.001565 787.998438 L 160.001565 787.998438 L 160.001565 771.998438 " transform="matrix(1,0,0,-1,-95.400002,820.6)"/>
<path style="fill-rule:evenodd;fill:rgb(20%,20%,20%);fill-opacity:1;stroke-width:1.2;stroke-linecap:butt;stroke-linejoin:round;stroke:rgb(20%,20%,20%);stroke-opacity:1;stroke-miterlimit:10;" d="M 160.001565 771.998438 L 162.32969 778.998438 L 157.669533 778.998438 Z M 160.001565 771.998438 " transform="matrix(1,0,0,-1,-95.400002,820.6)"/>
<path style="fill:none;stroke-width:1.2;stroke-linecap:butt;stroke-linejoin:round;stroke:rgb(20%,20%,20%);stroke-opacity:1;stroke-miterlimit:10;" d="M 160.001565 787.998438 L 208.001565 787.998438 L 208.001565 771.998438 " transform="matrix(1,0,0,-1,-95.400002,820.6)"/>
<path style="fill-rule:evenodd;fill:rgb(20%,20%,20%);fill-opacity:1;stroke-width:1.2;stroke-linecap:butt;stroke-linejoin:round;stroke:rgb(20%,20%,20%);stroke-opacity:1;stroke-miterlimit:10;" d="M 208.001565 771.998438 L 210.32969 778.998438 L 205.669533 778.998438 Z M 208.001565 771.998438 " transform="matrix(1,0,0,-1,-95.400002,820.6)"/>
<path style="fill:none;stroke-width:1.2;stroke-linecap:butt;stroke-linejoin:round;stroke:rgb(20%,20%,20%);stroke-opacity:1;stroke-miterlimit:10;" d="M 224.001565 771.998438 L 224.001565 819.998438 L 352.431252 819.998438 L 352.431252 771.998438 " transform="matrix(1,0,0,-1,-95.400002,820.6)"/>
<path style="fill-rule:evenodd;fill:rgb(20%,20%,20%);fill-opacity:1;stroke-width:1.2;stroke-linecap:butt;stroke-linejoin:round;stroke:rgb(20%,20%,20%);stroke-opacity:1;stroke-miterlimit:10;" d="M 352.431252 771.998438 L 354.763283 778.998438 L 350.103127 778.998438 Z M 352.431252 771.998438 " transform="matrix(1,0,0,-1,-95.400002,820.6)"/>
<path style="fill:none;stroke-width:1.2;stroke-linecap:butt;stroke-linejoin:round;stroke:rgb(20%,20%,20%);stroke-opacity:1;stroke-miterlimit:10;" d="M 352.001565 819.998438 L 400.001565 819.998438 L 400.001565 771.998438 " transform="matrix(1,0,0,-1,-95.400002,820.6)"/>
<path style="fill-rule:evenodd;fill:rgb(20%,20%,20%);fill-opacity:1;stroke-width:1.2;stroke-linecap:butt;stroke-linejoin:round;stroke:rgb(20%,20%,20%);stroke-opacity:1;stroke-miterlimit:10;" d="M 400.001565 771.998438 L 402.32969 778.998438 L 397.669533 778.998438 Z M 400.001565 771.998438 " transform="matrix(1,0,0,-1,-95.400002,820.6)"/>
<path style="fill:none;stroke-width:1.2;stroke-linecap:butt;stroke-linejoin:round;stroke:rgb(20%,20%,20%);stroke-opacity:1;stroke-miterlimit:10;" d="M 255.997658 683.998438 L 175.997658 683.998438 L 175.997658 715.998438 " transform="matrix(1,0,0,-1,-95.400002,820.6)"/>
<path style="fill:none;stroke-width:1.2;stroke-linecap:butt;stroke-linejoin:round;stroke:rgb(20%,20%,20%);stroke-opacity:1;stroke-miterlimit:10;" d="M 256.001565 715.998438 L 256.001565 683.998438 L 304.001565 683.998438 L 304.001565 715.998438 " transform="matrix(1,0,0,-1,-95.400002,820.6)"/>
<path style="fill-rule:evenodd;fill:rgb(20%,20%,20%);fill-opacity:1;stroke-width:1.2;stroke-linecap:butt;stroke-linejoin:round;stroke:rgb(20%,20%,20%);stroke-opacity:1;stroke-miterlimit:10;" d="M 304.001565 715.998438 L 301.669533 708.998438 L 306.32969 708.998438 Z M 304.001565 715.998438 " transform="matrix(1,0,0,-1,-95.400002,820.6)"/>
<path style="fill-rule:evenodd;fill:rgb(20%,20%,20%);fill-opacity:1;stroke-width:1.2;stroke-linecap:butt;stroke-linejoin:round;stroke:rgb(20%,20%,20%);stroke-opacity:1;stroke-miterlimit:10;" d="M 256.001565 715.998438 L 253.669533 708.998438 L 258.32969 708.998438 Z M 256.001565 715.998438 " transform="matrix(1,0,0,-1,-95.400002,820.6)"/>
</g>
</svg>
